<?xml version="1.0" encoding="utf-8" ?>
<svg baseProfile="full" height="237" version="1.1" width="252" xmlns="http://www.w3.org/2000/svg" xmlns:ev="http://www.w3.org/2001/xml-events" xmlns:xlink="http://www.w3.org/1999/xlink"><defs /><path d="M 3.5 236.0 L 3.5 235.0 L 3.5 234.0 L 3.5 233.0 L 3.5 232.0 L 4.0 231.5 L 4.5 231.0 L 4.5 230.0 L 4.5 229.0 L 4.5 228.0 L 4.5 227.0 L 4.5 226.0 L 4.5 225.0 L 4.5 224.0 L 5.0 223.5 L 5.5 223.0 L 5.5 222.0 L 5.5 221.0 L 5.5 220.0 L 5.5 219.0 L 5.5 218.0 L 5.5 217.0 L 6.0 216.5 L 6.5 216.0 L 6.5 215.0 L 6.5 214.0 L 6.5 213.0 L 6.5 212.0 L 6.5 211.0 L 6.5 210.0 L 7.0 209.5 L 7.5 209.0 L 7.5 208.0 L 7.5 207.0 L 7.5 206.0 L 7.5 205.0 L 7.5 204.0 L 7.5 203.0 L 8.0 202.5 L 8.5 202.0 L 8.5 201.0 L 8.5 200.0 L 8.5 199.0 L 8.5 198.0 L 8.5 197.0 L 9.0 196.5 L 9.5 196.0 L 9.5 195.0 L 9.5 194.0 L 9.5 193.0 L 9.5 192.0 L 9.5 191.0 L 10.0 190.5 L 10.5 190.0 L 10.5 189.0 L 10.5 188.0 L 10.5 187.0 L 10.5 186.0 L 11.0 185.5 L 11.5 185.0 L 11.5 184.0 L 11.5 183.0 L 11.5 182.0 L 11.5 181.0 L 11.5 180.0 L 12.0 179.5 L 12.5 179.0 L 12.5 178.0 L 12.5 177.0 L 12.5 176.0 L 12.5 175.0 L 12.5 174.0 L 13.0 173.5 L 13.5 173.0 L 13.5 172.0 L 13.5 171.0 L 13.5 170.0 L 13.5 169.0 L 14.0 168.5 L 14.5 168.0 L 14.5 167.0 L 14.5 166.0 L 14.5 165.0 L 14.5 164.0 L 14.5 163.0 L 14.5 162.0 L 15.0 161.5 L 15.5 161.0 L 15.5 160.0 L 15.5 159.0 L 15.5 158.0 L 15.5 157.0 L 16.0 156.5 L 16.5 156.0 L 16.5 155.0 L 16.5 154.0 L 16.5 153.0 L 16.5 152.0 L 17.0 151.5 L 17.5 151.0 L 17.5 150.0 L 17.5 149.0 L 17.5 148.0 L 17.5 147.0 L 18.0 146.5 L 18.5 146.0 L 18.5 145.0 L 18.5 144.0 L 18.5 143.0 L 18.5 142.0 L 19.0 141.5 L 19.5 141.0 L 19.5 140.0 L 19.5 139.0 L 19.5 138.0 L 19.5 137.0 L 20.0 136.5 L 20.5 136.0 L 20.5 135.0 L 20.5 134.0 L 20.5 133.0 L 21.0 132.5 L 21.5 132.0 L 21.5 131.0 L 21.5 130.0 L 21.5 129.0 L 22.0 128.5 L 22.5 128.0 L 22.5 127.0 L 22.5 126.0 L 22.5 125.0 L 23.0 124.5 L 23.5 124.0 L 23.5 123.0 L 23.5 122.0 L 23.5 121.0 L 24.0 120.5 L 24.5 120.0 L 24.5 119.0 L 24.5 118.0 L 25.0 117.5 L 25.5 117.0 L 25.5 116.0 L 25.5 115.0 L 25.5 114.0 L 26.0 113.5 L 26.5 113.0 L 26.5 112.0 L 26.5 111.0 L 26.5 110.0 L 27.0 109.5 L 27.5 109.0 L 27.5 108.0 L 27.5 107.0 L 28.0 106.5 L 28.5 106.0 L 28.5 105.0 L 28.5 104.0 L 29.0 103.5 L 29.5 103.0 L 29.5 102.0 L 29.5 101.0 L 30.0 100.5 L 30.5 100.0 L 30.5 99.0 L 30.5 98.0 L 30.5 97.0 L 31.0 96.5 L 31.5 96.0 L 31.5 95.0 L 31.5 94.0 L 32.0 93.5 L 32.5 93.0 L 32.5 92.0 L 33.0 91.5 L 33.5 91.0 L 33.5 90.0 L 33.5 89.0 L 34.0 88.5 L 34.5 88.0 L 34.5 87.0 L 34.5 86.0 L 35.0 85.5 L 35.5 85.0 L 35.5 84.0 L 35.5 83.0 L 36.0 82.5 L 36.5 82.0 L 36.5 81.0 L 36.5 80.0 L 37.0 79.5 L 37.5 79.0 L 37.5 78.0 L 37.5 77.0 L 38.0 76.5 L 38.5 76.0 L 38.5 75.0 L 39.0 74.5 L 39.5 74.0 L 39.5 73.0 L 39.5 72.0 L 40.0 71.5 L 40.5 71.0 L 40.5 70.0 L 41.0 69.5 L 41.5 69.0 L 41.5 68.0 L 41.5 67.0 L 42.0 66.5 L 42.5 66.0 L 42.5 65.0 L 43.0 64.5 L 43.5 64.0 L 43.5 63.0 L 44.0 62.5 L 44.5 62.0 L 44.5 61.0 L 44.5 60.0 L 45.0 59.5 L 45.5 59.0 L 45.5 58.0 L 46.0 57.5 L 46.5 57.0 L 46.5 56.0 L 47.0 55.5 L 47.5 55.0 L 47.5 54.0 L 48.0 53.5 L 48.5 53.0 L 49.0 52.5 L 49.5 52.0 L 49.5 51.0 L 50.0 50.5 L 50.5 50.0 L 50.5 49.0 L 51.0 48.5 L 51.5 48.0 L 51.5 47.0 L 52.0 46.5 L 52.5 46.0 L 53.0 45.5 L 53.5 45.0 L 54.0 44.5 L 54.5 44.0 L 54.5 43.0 L 55.0 42.5 L 55.5 42.0 L 56.0 41.5 L 56.5 41.0 L 57.0 40.5 L 57.5 40.0 L 58.0 39.5 L 58.5 39.0 L 58.5 38.0 L 59.0 37.5 L 59.5 37.0 L 60.0 36.5 L 60.5 36.0 L 61.0 35.5 L 61.5 35.0 L 62.0 34.5 L 62.5 34.0 L 63.0 33.5 L 63.5 33.0 L 64.0 32.5 L 64.5 32.0 L 65.0 31.5 L 65.5 31.0 L 66.0 30.5 L 66.5 30.0 L 67.0 29.5 L 67.5 29.0 L 68.0 28.5 L 68.5 28.0 L 69.0 27.5 L 69.5 27.0 L 70.0 26.5 L 70.5 26.0 L 71.0 25.5 L 72.0 25.5 L 72.5 25.0 L 73.0 24.5 L 73.5 24.0 L 74.0 23.5 L 74.5 23.0 L 75.0 22.5 L 75.5 22.0 L 76.0 21.5 L 77.0 21.5 L 77.5 21.0 L 78.0 20.5 L 78.5 20.0 L 79.0 19.5 L 79.5 19.0 L 80.0 18.5 L 81.0 18.5 L 81.5 18.0 L 82.0 17.5 L 83.0 17.5 L 83.5 17.0 L 84.0 16.5 L 85.0 16.5 L 85.5 16.0 L 86.0 15.5 L 86.5 15.0 L 87.0 14.5 L 88.0 14.5 L 88.5 14.0 L 89.0 13.5 L 90.0 13.5 L 91.0 13.5 L 91.5 13.0 L 92.0 12.5 L 93.0 12.5 L 93.5 12.0 L 94.0 11.5 L 95.0 11.5 L 95.5 11.0 L 96.0 10.5 L 97.0 10.5 L 97.5 10.0 L 98.0 9.5 L 99.0 9.5 L 100.0 9.5 L 100.5 9.0 L 101.0 8.5 L 102.0 8.5 L 103.0 8.5 L 103.5 8.0 L 104.0 7.5 L 105.0 7.5 L 106.0 7.5 L 106.5 7.0 L 107.0 6.5 L 108.0 6.5 L 109.0 6.5 L 110.0 6.5 L 110.5 6.0 L 111.0 5.5 L 112.0 5.5 L 113.0 5.5 L 114.0 5.5 L 114.5 5.0 L 115.0 4.5 L 116.0 4.5 L 117.0 4.5 L 118.0 4.5 L 119.0 4.5 L 119.5 4.0 L 120.0 3.5 L 121.0 3.5 L 122.0 3.5 L 123.0 3.5 L 124.0 3.5 L 125.0 3.5 L 125.5 3.0 L 126.0 2.5 L 127.0 2.5 L 128.0 2.5 L 129.0 2.5 L 130.0 2.5 L 131.0 2.5 L 132.0 2.5 L 133.0 2.5 L 134.0 2.5 L 135.0 2.5 L 136.0 2.5 L 137.0 2.5 L 138.0 2.5 L 139.0 2.5 L 140.0 2.5 L 141.0 2.5 L 142.0 2.5 L 143.0 2.5 L 144.0 2.5 L 145.0 2.5 L 146.0 2.5 L 147.0 2.5 L 148.0 2.5 L 149.0 2.5 L 150.0 2.5 L 151.0 2.5 L 152.0 2.5 L 153.0 2.5 L 154.0 2.5 L 154.5 3.0 L 155.0 3.5 L 156.0 3.5 L 157.0 3.5 L 158.0 3.5 L 159.0 3.5 L 159.5 4.0 L 160.0 4.5 L 161.0 4.5 L 162.0 4.5 L 163.0 4.5 L 164.0 4.5 L 164.5 5.0 L 165.0 5.5 L 166.0 5.5 L 167.0 5.5 L 168.0 5.5 L 168.5 6.0 L 169.0 6.5 L 170.0 6.5 L 171.0 6.5 L 171.5 7.0 L 172.0 7.5 L 173.0 7.5 L 174.0 7.5 L 174.5 8.0 L 175.0 8.5 L 176.0 8.5 L 177.0 8.5 L 177.5 9.0 L 178.0 9.5 L 179.0 9.5 L 179.5 10.0 L 180.0 10.5 L 181.0 10.5 L 182.0 10.5 L 182.5 11.0 L 183.0 11.5 L 184.0 11.5 L 184.5 12.0 L 185.0 12.5 L 186.0 12.5 L 186.5 13.0 L 187.0 13.5 L 188.0 13.5 L 188.5 14.0 L 189.0 14.5 L 190.0 14.5 L 190.5 15.0 L 191.0 15.5 L 192.0 15.5 L 192.5 16.0 L 193.0 16.5 L 194.0 16.5 L 194.5 17.0 L 195.0 17.5 L 195.5 18.0 L 196.0 18.5 L 197.0 18.5 L 197.5 19.0 L 198.0 19.5 L 199.0 19.5 L 199.5 20.0 L 200.0 20.5 L 200.5 21.0 L 201.0 21.5 L 202.0 21.5 L 202.5 22.0 L 203.0 22.5 L 203.5 23.0 L 204.0 23.5 L 204.5 24.0 L 205.0 24.5 L 206.0 24.5 L 206.5 25.0 L 207.0 25.5 L 207.5 26.0 L 208.0 26.5 L 208.5 27.0 L 209.0 27.5 L 209.5 28.0 L 210.0 28.5 L 210.5 29.0 L 211.0 29.5 L 211.5 30.0 L 212.0 30.5 L 212.5 31.0 L 213.0 31.5 L 213.5 32.0 L 214.0 32.5 L 215.0 32.5 L 215.5 33.0 L 216.0 33.5 L 216.5 34.0 L 216.5 35.0 L 217.0 35.5 L 217.5 36.0 L 218.0 36.5 L 218.5 37.0 L 219.0 37.5 L 219.5 38.0 L 220.0 38.5 L 220.5 39.0 L 221.0 39.5 L 221.5 40.0 L 222.0 40.5 L 222.5 41.0 L 222.5 42.0 L 223.0 42.5 L 223.5 43.0 L 224.0 43.5 L 224.5 44.0 L 225.0 44.5 L 225.5 45.0 L 226.0 45.5 L 226.5 46.0 L 226.5 47.0 L 227.0 47.5 L 227.5 48.0 L 228.0 48.5 L 228.5 49.0 L 228.5 50.0 L 229.0 50.5 L 229.5 51.0 L 230.0 51.5 L 230.5 52.0 L 230.5 53.0 L 231.0 53.5 L 231.5 54.0 L 232.0 54.5 L 232.5 55.0 L 232.5 56.0 L 233.0 56.5 L 233.5 57.0 L 233.5 58.0 L 234.0 58.5 L 234.5 59.0 L 234.5 60.0 L 235.0 60.5 L 235.5 61.0 L 235.5 62.0 L 236.0 62.5 L 236.5 63.0 L 236.5 64.0 L 237.0 64.5 L 237.5 65.0 L 237.5 66.0 L 238.0 66.5 L 238.5 67.0 L 238.5 68.0 L 239.0 68.5 L 239.5 69.0 L 239.5 70.0 L 239.5 71.0 L 240.0 71.5 L 240.5 72.0 L 240.5 73.0 L 241.0 73.5 L 241.5 74.0 L 241.5 75.0 L 241.5 76.0 L 242.0 76.5 L 242.5 77.0 L 242.5 78.0 L 242.5 79.0 L 243.0 79.5 L 243.5 80.0 L 243.5 81.0 L 243.5 82.0 L 244.0 82.5 L 244.5 83.0 L 244.5 84.0 L 244.5 85.0 L 244.5 86.0 L 245.0 86.5 L 245.5 87.0 L 245.5 88.0 L 245.5 89.0 L 245.5 90.0 L 245.5 91.0 L 246.0 91.5 L 246.5 92.0 L 246.5 93.0 L 246.5 94.0 L 246.5 95.0 L 246.5 96.0 L 246.5 97.0 L 246.5 98.0 L 247.0 98.5 L 247.5 99.0 L 247.5 100.0 L 247.5 101.0 L 247.5 102.0 L 247.5 103.0 L 247.5 104.0 L 247.5 105.0 L 247.5 106.0 L 247.5 107.0 L 247.5 108.0 L 247.5 109.0 L 247.5 110.0 L 247.5 111.0 L 247.5 112.0 L 247.5 113.0 L 247.5 114.0 L 247.5 115.0 L 247.5 116.0 L 247.5 117.0 L 247.5 118.0 L 247.5 119.0 L 247.0 119.5 L 246.5 120.0 L 246.5 121.0 L 246.5 122.0 L 246.5 123.0 L 246.5 124.0 L 246.5 125.0 L 246.5 126.0 L 246.0 126.5 L 245.5 127.0 L 245.5 128.0 L 245.5 129.0 L 245.5 130.0 L 245.5 131.0 L 245.0 131.5 L 244.5 132.0 L 244.5 133.0 L 244.5 134.0 L 244.5 135.0 L 244.0 135.5 L 243.5 136.0 L 243.5 137.0 L 243.5 138.0 L 243.5 139.0 L 243.0 139.5 L 242.5 140.0 L 242.5 141.0 L 242.5 142.0 L 242.0 142.5 L 241.5 143.0 L 241.5 144.0 L 241.5 145.0 L 241.0 145.5 L 240.5 146.0 L 240.5 147.0 L 240.5 148.0 L 240.0 148.5 L 239.5 149.0 L 239.5 150.0 L 239.5 151.0 L 239.0 151.5 L 238.5 152.0 L 238.5 153.0 L 238.5 154.0 L 238.0 154.5 L 237.5 155.0 L 237.5 156.0 L 237.0 156.5 L 236.5 157.0 L 236.5 158.0 L 236.0 158.5 L 235.5 159.0 L 235.5 160.0 L 235.0 160.5 L 234.5 161.0 L 234.5 162.0 L 234.0 162.5 L 233.5 163.0 L 233.5 164.0 L 233.0 164.5 L 232.5 165.0 L 232.5 166.0 L 232.0 166.5 L 231.5 167.0 L 231.5 168.0 L 231.0 168.5 L 230.5 169.0 L 230.0 169.5 L 229.5 170.0 L 229.5 171.0 L 229.0 171.5 L 228.5 172.0 L 228.0 172.5 L 227.5 173.0 L 227.0 173.5 L 226.5 174.0 L 226.5 175.0 L 226.0 175.5 L 225.5 176.0 L 225.0 176.5 L 224.5 177.0 L 224.0 177.5 L 223.5 178.0 L 223.0 178.5 L 222.5 179.0 L 222.5 180.0 L 222.0 180.5 L 221.5 181.0 L 221.0 181.5 L 220.5 182.0 L 220.0 182.5 L 219.5 183.0 L 219.0 183.5 L 218.5 184.0 L 218.0 184.5 L 217.5 185.0 L 217.0 185.5 L 216.5 186.0 L 216.0 186.5 L 215.5 187.0 L 215.0 187.5 L 214.5 188.0 L 214.0 188.5 L 213.5 189.0 L 213.0 189.5 L 212.5 190.0 L 212.0 190.5 L 211.0 190.5 L 210.5 191.0 L 210.0 191.5 L 209.5 192.0 L 209.0 192.5 L 208.5 193.0 L 208.0 193.5 L 207.5 194.0 L 207.0 194.5 L 206.5 195.0 L 206.0 195.5 L 205.0 195.5 L 204.5 196.0 L 204.0 196.5 L 203.5 197.0 L 203.0 197.5 L 202.0 197.5 L 201.5 198.0 L 201.0 198.5 L 200.0 198.5 L 199.5 199.0 L 199.0 199.5 L 198.0 199.5 L 197.5 200.0 L 197.0 200.5 L 196.5 201.0 L 196.0 201.5 L 195.0 201.5 L 194.5 202.0 L 194.0 202.5 L 193.0 202.5 L 192.5 203.0 L 192.0 203.5 L 191.0 203.5 L 190.5 204.0 L 190.0 204.5 L 189.0 204.5 L 188.0 204.5 L 187.5 205.0 L 187.0 205.5 L 186.0 205.5 L 185.5 206.0 L 185.0 206.5 L 184.0 206.5 L 183.5 207.0 L 183.0 207.5 L 182.0 207.5 L 181.0 207.5 L 180.5 208.0 L 180.0 208.5 L 179.0 208.5 L 178.5 209.0 L 178.0 209.5 L 177.0 209.5 L 176.0 209.5 L 175.5 210.0 L 175.0 210.5 L 174.0 210.5 L 173.5 211.0 L 173.0 211.5 L 172.0 211.5 L 171.0 211.5 L 170.5 212.0 L 170.0 212.5 L 169.0 212.5 L 168.0 212.5 L 167.5 213.0 L 167.0 213.5 L 166.0 213.5 L 165.5 214.0 L 165.0 214.5 L 164.0 214.5 L 163.0 214.5 L 162.5 215.0 L 162.0 215.5 L 161.0 215.5 L 160.0 215.5 L 159.5 216.0 L 159.0 216.5 L 158.0 216.5 L 157.0 216.5 L 156.5 217.0 L 156.0 217.5 L 155.0 217.5 L 154.0 217.5 L 153.5 218.0 L 153.0 218.5 L 152.0 218.5 L 151.0 218.5 L 150.5 219.0 L 150.0 219.5 L 149.0 219.5 L 148.0 219.5 L 147.5 220.0 L 147.0 220.5 L 146.0 220.5 L 145.0 220.5 L 144.5 221.0 L 144.0 221.5 L 143.0 221.5 L 142.0 221.5 L 141.0 221.5 L 140.5 222.0 L 140.0 222.5 L 139.0 222.5 L 138.0 222.5 L 137.0 222.5 L 136.5 223.0 L 136.0 223.5 L 135.0 223.5 L 134.0 223.5 L 133.5 224.0 L 133.0 224.5 L 132.0 224.5 L 131.0 224.5 L 130.0 224.5 L 129.5 225.0 L 129.0 225.5 L 128.0 225.5 L 127.0 225.5 L 126.0 225.5 L 125.5 226.0 L 125.0 226.5 L 124.0 226.5 L 123.0 226.5 L 122.0 226.5 L 121.5 227.0 L 121.0 227.5 L 120.0 227.5 L 119.0 227.5 L 118.0 227.5 L 117.5 228.0 L 117.0 228.5 L 116.0 228.5 L 115.0 228.5 L 114.0 228.5 L 113.0 228.5 L 112.5 229.0 L 112.0 229.5 L 111.0 229.5 L 110.0 229.5 L 109.0 229.5 L 108.0 229.5 L 107.5 230.0 L 107.0 230.5 L 106.0 230.5 L 105.0 230.5 L 104.0 230.5 L 103.0 230.5 L 102.5 231.0 L 102.0 231.5 L 101.0 231.5 L 100.0 231.5 L 99.0 231.5 L 98.0 231.5 L 97.5 232.0 L 97.0 232.5 L 96.0 232.5 L 95.0 232.5 L 94.0 232.5 L 93.0 232.5 L 92.5 233.0 L 92.0 233.5 L 91.0 233.5 L 90.0 233.5 L 89.0 233.5 L 88.0 233.5 L 87.0 233.5 L 86.5 234.0 L 86.0 234.5 L 85.0 234.5 L 84.0 234.5 L 83.0 234.5 L 82.0 234.5 L 81.0 234.5 L 80.5 235.0 L 80.0 235.5 L 79.5 236.0 Z" fill="#052740" stroke="none" /></svg>