<svg width="244" height="26" viewBox="0 0 244 26" fill="none" xmlns="http://www.w3.org/2000/svg">
<path d="M19.1079 6.86879C19.1079 8.35459 18.7361 9.56682 17.9907 10.5085C17.2454 11.4502 16.3235 12.1213 15.2235 12.5203L15.2579 12.6201C16.0829 12.9088 16.7814 13.4181 17.3548 14.1497C17.9267 14.8813 18.2142 15.8123 18.2142 16.943C18.2142 18.3834 17.9439 19.5971 17.4064 20.5826C16.8673 21.5697 16.1751 22.3783 15.3267 23.0101C14.4782 23.6419 13.5282 24.0969 12.4735 24.3735C11.4188 24.6501 10.3766 24.7892 9.34537 24.7892H0L4.22659 1.25053H12.5095C13.2188 1.25053 13.9642 1.33971 14.7438 1.51656C15.522 1.69492 16.2392 1.99873 16.8923 2.43102C17.5454 2.86331 18.0782 3.43919 18.4907 4.16018C18.9032 4.88116 19.1095 5.78353 19.1095 6.8703L19.1079 6.86879ZM11.4094 16.943C11.4094 16.3671 11.2423 15.9514 10.911 15.696C10.5782 15.442 10.1954 15.3136 9.75944 15.3136H8.35005L7.69692 19.0046H9.07193C9.736 19.0046 10.2923 18.8384 10.7391 18.5058C11.186 18.1733 11.4094 17.6534 11.4094 16.943ZM12.6813 8.46493C12.6813 8.04474 12.5438 7.69558 12.2688 7.41746C11.9938 7.14086 11.6266 7.0018 11.1688 7.0018H9.86256L9.24381 10.3588H10.5844C11.0657 10.3588 11.5345 10.2213 11.9938 9.94318C12.4516 9.66658 12.6813 9.17383 12.6813 8.46342V8.46493Z" fill="#00263A"/>
<path d="M27.0127 24.7892H19.7267L23.9533 1.25053H31.2393L27.0127 24.7892Z" fill="#00263A"/>
<path d="M52.2394 9.86157C52.2394 11.8341 51.9644 13.7507 51.4144 15.6128C50.8644 17.475 50.0675 19.1377 49.0253 20.5993C47.9831 22.0624 46.705 23.2369 45.194 24.1226C43.6815 25.0083 41.9753 25.4527 40.0737 25.4527C38.6987 25.4527 37.4784 25.2305 36.4143 24.7877C35.3502 24.3448 34.4487 23.713 33.7158 22.8922C32.983 22.073 32.4268 21.092 32.0486 19.9493C31.6705 18.8082 31.4814 17.5385 31.4814 16.1434C31.4814 14.1709 31.7564 12.2528 32.3065 10.3921C32.8565 8.53145 33.6471 6.87333 34.6783 5.42229C35.7096 3.97125 36.9752 2.80134 38.4752 1.91409C39.9753 1.02835 41.6768 0.583969 43.5784 0.583969C45.0222 0.583969 46.2815 0.80616 47.3597 1.24903C48.4362 1.6919 49.3362 2.31917 50.0581 3.12783C50.78 3.93648 51.3238 4.91291 51.691 6.0541C52.0566 7.19528 52.241 8.46494 52.241 9.86006L52.2394 9.86157ZM44.8831 10.8592C44.8831 9.86157 44.7112 9.03024 44.3675 8.36518C44.0237 7.70012 43.4971 7.36759 42.7862 7.36759C42.144 7.36759 41.5768 7.62908 41.0846 8.14904C40.5909 8.67051 40.1799 9.31894 39.8471 10.0943C39.5143 10.8697 39.2627 11.7132 39.0909 12.6216C38.919 13.53 38.8331 14.384 38.8331 15.1821C38.8331 16.157 38.9877 16.9717 39.2971 17.6262C39.6065 18.2806 40.1612 18.6071 40.9643 18.6071C41.5831 18.6071 42.1378 18.3532 42.6315 17.8423C43.1237 17.3329 43.5362 16.6905 43.869 15.9136C44.2003 15.1382 44.4534 14.2963 44.6253 13.3864C44.7972 12.478 44.8831 11.6361 44.8831 10.8592Z" fill="#00263A"/>
<path d="M76.3302 24.7892H69.2849L72.0692 10.9922H71.9661L66.2958 24.7892H61.6911L61.2098 10.9922H61.0723L58.9067 24.7892H52.4457L56.6723 1.25053H65.1958L65.9176 13.9502H66.0551L71.1067 1.25053H80.5584L76.3318 24.7892H76.3302Z" fill="#00263A"/>
<path d="M95.7131 7.36758H89.974L89.4584 10.0278H94.7506L93.7538 15.7126H88.4615L87.9459 18.5723H94.3381L93.2381 24.7892H79.9724L84.199 1.25053H96.8116L95.7116 7.36758H95.7131Z" fill="#00263A"/>
<path d="M121.832 6.86879C121.832 8.35459 121.46 9.56682 120.715 10.5085C119.969 11.4502 119.048 12.1213 117.948 12.5203L117.982 12.6201C118.807 12.9088 119.505 13.4181 120.079 14.1497C120.651 14.8813 120.938 15.8123 120.938 16.943C120.938 18.3834 120.668 19.5971 120.13 20.5826C119.591 21.5697 118.899 22.3783 118.051 23.0101C117.202 23.6419 116.252 24.0969 115.198 24.3735C114.143 24.6501 113.101 24.7892 112.069 24.7892H102.721L106.948 1.25053H115.23C115.94 1.25053 116.685 1.33971 117.465 1.51656C118.243 1.69492 118.96 1.99873 119.613 2.43102C120.266 2.86331 120.799 3.43919 121.212 4.16018C121.624 4.88116 121.83 5.78353 121.83 6.8703L121.832 6.86879ZM114.134 16.943C114.134 16.3671 113.966 15.9514 113.635 15.696C113.302 15.442 112.919 15.3136 112.484 15.3136H111.074L110.421 19.0046H111.796C112.46 19.0046 113.016 18.8384 113.463 18.5058C113.91 18.1733 114.134 17.6534 114.134 16.943ZM115.405 8.46493C115.405 8.04474 115.268 7.69558 114.993 7.41746C114.718 7.14086 114.351 7.0018 113.893 7.0018H112.587L111.968 10.3588H113.309C113.79 10.3588 114.259 10.2213 114.718 9.94318C115.176 9.66658 115.405 9.17383 115.405 8.46342V8.46493Z" fill="#00263A"/>
<path d="M142.384 7.86638C142.384 9.57287 142.034 11.0133 141.335 12.1878C140.637 13.3622 139.645 14.2162 138.362 14.7482L140.665 24.7892H133.07L131.763 16.2114H130.87L129.323 24.7892H122.449L126.676 1.25053H135.096C137.456 1.25053 139.26 1.80526 140.509 2.91319C141.757 4.02112 142.382 5.67319 142.382 7.86638H142.384ZM135.132 8.76421C135.132 8.07799 134.943 7.62303 134.565 7.40084C134.187 7.18016 133.826 7.06831 133.482 7.06831H132.52L131.729 11.4229H132.485C133.173 11.4229 133.785 11.2234 134.324 10.8244C134.862 10.4254 135.132 9.73913 135.132 8.7627V8.76421Z" fill="#00263A"/>
<path d="M149.532 24.7892H142.246L146.473 1.25053H153.759L149.532 24.7892Z" fill="#00263A"/>
<path d="M168.778 8.59799C168.434 8.22163 168.05 7.9163 167.626 7.68353C167.203 7.45076 166.636 7.33438 165.925 7.33438C165.076 7.33438 164.337 7.58377 163.707 8.08257C163.078 8.58136 162.556 9.21317 162.143 9.97799C161.731 10.7428 161.421 11.5847 161.215 12.5052C161.009 13.4257 160.906 14.2948 160.906 15.1156C160.906 15.6265 160.957 16.1071 161.06 16.5621C161.164 17.0171 161.329 17.41 161.559 17.7426C161.787 18.0751 162.092 18.3411 162.47 18.5407C162.848 18.7402 163.323 18.8399 163.896 18.8399C164.148 18.8399 164.389 18.8188 164.618 18.7734C164.846 18.7296 165.042 18.6525 165.203 18.5407L165.65 16.2129H162.9L164 10.1291H173.073L170.667 23.4606C169.681 24.103 168.582 24.5972 167.367 24.9404C166.153 25.2835 164.789 25.4558 163.278 25.4558C161.767 25.4558 160.356 25.223 159.189 24.7575C158.02 24.2919 157.053 23.639 156.284 22.7955C155.517 21.9536 154.943 20.95 154.565 19.7861C154.187 18.6223 153.998 17.3541 153.998 15.9787C153.998 13.917 154.295 11.9611 154.892 10.111C155.487 8.26093 156.329 6.62548 157.418 5.20769C158.506 3.7899 159.801 2.66383 161.301 1.83251C162.801 1.00118 164.446 0.585518 166.232 0.585518C167.171 0.585518 168.025 0.664116 168.793 0.818289C169.561 0.973974 170.237 1.17803 170.821 1.43347C171.406 1.68891 171.909 1.98215 172.334 2.31468C172.757 2.64721 173.107 2.99032 173.382 3.34552L168.778 8.59799Z" fill="#00263A"/>
<path d="M184.897 21.3308H180.532L179.261 24.7892H171.768L182.009 1.25053H190.911L192.182 24.7892H184.897V21.3308ZM182.25 16.0451H185V8.29867H184.862L182.25 16.0451Z" fill="#00263A"/>
<path d="M193.901 24.7892L198.128 1.25053H205.311C207.051 1.25053 208.525 1.47726 209.726 1.93222C210.929 2.38718 211.903 3.02353 212.648 3.84427C213.392 4.66502 213.931 5.64598 214.264 6.78717C214.595 7.92835 214.762 9.18592 214.762 10.5599C214.762 11.491 214.694 12.4886 214.556 13.5511C214.419 14.6152 214.172 15.6733 213.817 16.7268C213.461 17.7803 212.986 18.793 212.39 19.7695C211.794 20.7444 211.033 21.6029 210.104 22.3466C209.176 23.0902 208.065 23.6827 206.77 24.1256C205.475 24.57 203.968 24.7907 202.251 24.7907H193.9L193.901 24.7892ZM207.373 11.2234C207.373 10.7367 207.339 10.2591 207.27 9.79354C207.201 9.328 207.075 8.91234 206.892 8.54656C206.708 8.18077 206.45 7.88754 206.118 7.66535C205.786 7.44467 205.368 7.33282 204.864 7.33282H204.279L202.251 18.7023H202.904C203.751 18.7023 204.462 18.4424 205.036 17.9209C205.608 17.4009 206.067 16.757 206.411 15.9922C206.754 15.2274 207 14.4127 207.15 13.5481C207.298 12.6835 207.373 11.9081 207.373 11.2204V11.2234Z" fill="#00263A"/>
<path d="M230.708 7.36758H224.969L224.453 10.0278H229.745L228.748 15.7126H223.456L222.941 18.5723H229.333L228.233 24.7892H214.967L219.194 1.25053H231.806L230.706 7.36758H230.708Z" fill="#00263A"/>
<path d="M235.595 4.63487C235.595 4.07561 235.706 3.54961 235.927 3.05686C236.148 2.56411 236.448 2.13484 236.83 1.77208C237.211 1.40932 237.656 1.12063 238.167 0.907505C238.677 0.692872 239.22 0.587067 239.798 0.587067C240.377 0.587067 240.92 0.694383 241.43 0.907505C241.939 1.12214 242.386 1.40932 242.766 1.77208C243.147 2.13484 243.448 2.5626 243.669 3.05686C243.891 3.55112 244 4.07713 244 4.63487C244 5.19261 243.889 5.71711 243.669 6.20381C243.447 6.69202 243.147 7.11676 242.766 7.47952C242.384 7.84228 241.939 8.12795 241.43 8.33503C240.919 8.54361 240.375 8.64791 239.798 8.64791C239.222 8.64791 238.677 8.54361 238.167 8.33503C237.656 8.12795 237.211 7.84228 236.83 7.47952C236.448 7.11676 236.147 6.69202 235.927 6.20381C235.705 5.71559 235.595 5.19261 235.595 4.63487ZM236.259 4.63487C236.259 5.0989 236.352 5.53875 236.536 5.95441C236.72 6.37007 236.972 6.73586 237.292 7.05176C237.611 7.36767 237.986 7.61404 238.417 7.7924C238.847 7.97076 239.308 8.05993 239.8 8.05993C240.292 8.05993 240.753 7.97076 241.183 7.7924C241.613 7.61404 241.987 7.36767 242.308 7.05176C242.627 6.73737 242.88 6.37159 243.064 5.95441C243.248 5.53875 243.341 5.0989 243.341 4.63487C243.341 4.17084 243.248 3.71285 243.064 3.29719C242.88 2.88153 242.628 2.51877 242.308 2.20891C241.987 1.89905 241.613 1.6557 241.183 1.47734C240.753 1.29898 240.292 1.20981 239.8 1.20981C239.308 1.20981 238.847 1.29898 238.417 1.47734C237.987 1.6557 237.612 1.89905 237.292 2.20891C236.972 2.51877 236.72 2.88002 236.536 3.29719C236.352 3.71285 236.259 4.15875 236.259 4.63487ZM238.158 2.33285H239.817C240.039 2.33285 240.253 2.35704 240.462 2.40389C240.672 2.45075 240.859 2.52935 241.025 2.63515C241.191 2.74096 241.323 2.8785 241.422 3.04477C241.52 3.21103 241.569 3.41962 241.569 3.66902C241.569 4.00155 241.47 4.27211 241.273 4.4807C241.077 4.68928 240.812 4.82834 240.481 4.89938L241.753 6.89759H240.72L239.614 4.98856H239.006V6.89759H238.158V2.33285ZM239.687 4.33106C239.933 4.33106 240.167 4.28722 240.387 4.19805C240.609 4.10887 240.719 3.92749 240.719 3.6539C240.719 3.40451 240.617 3.23824 240.414 3.15511C240.211 3.07198 239.998 3.02965 239.778 3.02965H239.003V4.33106H239.686H239.687Z" fill="#00263A"/>
</svg>
